<svg width="23395" height="5713" viewBox="0 0 23395 5713" fill="none" xmlns="http://www.w3.org/2000/svg">
<rect width="5713" height="5713" rx="500" fill="#2CB1BC"/>
<path d="M1048.36 4044L432.594 1862.18H857.665L1250.78 3465.52H1271.02L1690.76 1862.18H2077.48L2498.29 3466.59H2517.47L2910.58 1862.18H3335.65L2719.88 4044H2329.97L1893.18 2513.11H1876.13L1438.28 4044H1048.36ZM3609.71 4044V1862.18H5007.43V2193.5H4004.95V2785.83H4911.55V3117.15H4004.95V4044H3609.71Z" fill="white"/>
<path d="M8441.36 4044L7825.59 1862.18H8250.66L8643.78 3465.52H8664.02L9083.76 1862.18H9470.48L9891.29 3466.59H9910.47L10303.6 1862.18H10728.6L10112.9 4044H9722.97L9286.18 2513.11H9269.13L8831.28 4044H8441.36ZM11532.4 4075.96C11372.6 4075.96 11234.2 4040.8 11117 3970.49C10999.8 3900.18 10908.9 3801.81 10844.2 3675.39C10780.3 3548.97 10748.4 3401.24 10748.4 3232.21C10748.4 3063.18 10780.3 2915.09 10844.2 2787.96C10908.9 2660.83 10999.8 2562.11 11117 2491.8C11234.2 2421.49 11372.6 2386.33 11532.4 2386.33C11692.2 2386.33 11830.7 2421.49 11947.9 2491.8C12065.1 2562.11 12155.7 2660.83 12219.6 2787.96C12284.2 2915.09 12316.5 3063.18 12316.5 3232.21C12316.5 3401.24 12284.2 3548.97 12219.6 3675.39C12155.7 3801.81 12065.1 3900.18 11947.9 3970.49C11830.7 4040.8 11692.2 4075.96 11532.4 4075.96ZM11534.6 3767.01C11621.2 3767.01 11693.7 3743.22 11751.9 3695.63C11810.1 3647.34 11853.5 3582.71 11881.9 3501.74C11911 3420.78 11925.6 3330.58 11925.6 3231.14C11925.6 3131 11911 3040.45 11881.9 2959.48C11853.5 2877.81 11810.1 2812.82 11751.9 2764.53C11693.7 2716.23 11621.2 2692.08 11534.6 2692.08C11445.8 2692.08 11371.9 2716.23 11313 2764.53C11254.7 2812.82 11211.1 2877.81 11182 2959.48C11153.5 3040.45 11139.3 3131 11139.3 3231.14C11139.3 3330.58 11153.5 3420.78 11182 3501.74C11211.1 3582.71 11254.7 3647.34 11313 3695.63C11371.9 3743.22 11445.8 3767.01 11534.6 3767.01ZM12643.9 4044V2407.64H13017.8V2680.36H13034.8C13064.7 2585.9 13115.8 2513.11 13188.3 2461.97C13261.4 2410.12 13344.9 2384.2 13438.6 2384.2C13459.9 2384.2 13483.7 2385.26 13510 2387.39C13537 2388.82 13559.3 2391.3 13577.1 2394.85V2749.61C13560.8 2743.93 13534.8 2738.96 13499.3 2734.7C13464.5 2729.72 13430.8 2727.24 13398.1 2727.24C13327.8 2727.24 13264.6 2742.51 13208.5 2773.05C13153.1 2802.88 13109.4 2844.43 13077.5 2897.69C13045.5 2950.96 13029.5 3012.39 13029.5 3082V4044H12643.9ZM14184.9 3530.51L14183.8 3064.95H14245.6L14833.7 2407.64H15284.3L14560.9 3213.03H14481L14184.9 3530.51ZM13833.3 4044V1862.18H14219V4044H13833.3ZM14860.3 4044L14327.6 3299.33L14587.6 3027.66L15321.6 4044H14860.3ZM15558.4 4044V1862.18H16956.1V2193.5H15953.6V2785.83H16860.2V3117.15H15953.6V4044H15558.4ZM17684.8 1862.18V4044H17299.1V1862.18H17684.8ZM18795.1 4075.96C18635.3 4075.96 18496.8 4040.8 18379.7 3970.49C18262.5 3900.18 18171.6 3801.81 18106.9 3675.39C18043 3548.97 18011.1 3401.24 18011.1 3232.21C18011.1 3063.18 18043 2915.09 18106.9 2787.96C18171.6 2660.83 18262.5 2562.11 18379.7 2491.8C18496.8 2421.49 18635.3 2386.33 18795.1 2386.33C18954.9 2386.33 19093.4 2421.49 19210.6 2491.8C19327.8 2562.11 19418.4 2660.83 19482.3 2787.96C19546.9 2915.09 19579.2 3063.18 19579.2 3232.21C19579.2 3401.24 19546.9 3548.97 19482.3 3675.39C19418.4 3801.81 19327.8 3900.18 19210.6 3970.49C19093.4 4040.8 18954.9 4075.96 18795.1 4075.96ZM18797.3 3767.01C18883.9 3767.01 18956.4 3743.22 19014.6 3695.63C19072.8 3647.34 19116.2 3582.71 19144.6 3501.74C19173.7 3420.78 19188.3 3330.58 19188.3 3231.14C19188.3 3131 19173.7 3040.45 19144.6 2959.48C19116.2 2877.81 19072.8 2812.82 19014.6 2764.53C18956.4 2716.23 18883.9 2692.08 18797.3 2692.08C18708.5 2692.08 18634.6 2716.23 18575.7 2764.53C18517.4 2812.82 18473.8 2877.81 18444.6 2959.48C18416.2 3040.45 18402 3131 18402 3231.14C18402 3330.58 18416.2 3420.78 18444.6 3501.74C18473.8 3582.71 18517.4 3647.34 18575.7 3695.63C18634.6 3743.22 18708.5 3767.01 18797.3 3767.01ZM20197.4 4044L19735 2407.64H20128.2L20415.8 3558.2H20430.7L20724.7 2407.64H21113.6L21407.6 3551.81H21423.6L21707 2407.64H22101.2L21637.7 4044H21236.1L20929.3 2938.18H20906.9L20600.1 4044H20197.4Z" fill="#2CB1BC"/>
</svg>
